<svg width="21" height="27" viewBox="0 0 21 27" fill="none" xmlns="http://www.w3.org/2000/svg">
<path d="M5.44947 26.008C4.96319 25.667 4.5322 25.2456 4.17308 24.76C3.77804 24.2589 3.41204 23.733 3.07704 23.1854C2.29092 21.9714 1.67442 20.6445 1.24646 19.2456C0.732357 17.6206 0.483398 16.063 0.483398 14.5396C0.483398 12.8382 0.832558 11.353 1.51546 10.105C2.02169 9.12952 2.76597 8.31437 3.6713 7.74385C4.54868 7.16939 5.55679 6.85501 6.58944 6.83385C6.95093 6.83385 7.34017 6.8891 7.7533 6.99472C8.05005 7.08329 8.41154 7.22304 8.85319 7.39691C9.41508 7.62522 9.72416 7.76497 9.82899 7.7991C10.1581 7.92585 10.4348 7.9811 10.6522 7.9811C10.8171 7.9811 11.0499 7.92585 11.3143 7.84135C11.463 7.7861 11.7436 7.6886 12.1452 7.50741C12.5429 7.35466 12.8558 7.22385 13.1048 7.12635C13.4863 7.00772 13.8555 6.89804 14.1846 6.84279C14.5748 6.77794 14.9708 6.76077 15.3647 6.7916C16.0473 6.83863 16.7196 6.99111 17.3602 7.24416C18.4077 7.6886 19.2547 8.38247 19.8852 9.36885C19.6187 9.54199 19.3686 9.7417 19.1383 9.96522C18.6371 10.4337 18.21 10.9837 17.8735 11.5943C17.4336 12.4288 17.2056 13.3688 17.2114 14.3235C17.2276 15.4959 17.5128 16.5286 18.0747 17.4215C18.4878 18.0833 19.0247 18.6493 19.6525 19.0847C19.9739 19.313 20.2506 19.4698 20.5157 19.5755C20.3916 19.9817 20.2591 20.375 20.1026 20.765C19.7477 21.6395 19.3176 22.478 18.8177 23.2699C18.3722 23.9516 18.023 24.4594 17.7579 24.7974C17.3448 25.3133 16.9471 25.7074 16.5455 25.982C16.1038 26.2908 15.582 26.4557 15.0517 26.4557C14.6926 26.4703 14.3335 26.4245 13.9881 26.32C13.6913 26.2144 13.3977 26.0998 13.1086 25.969C12.8081 25.8235 12.4983 25.7005 12.1814 25.601C11.398 25.3889 10.5767 25.3875 9.79276 25.5969C9.47135 25.6944 9.16227 25.8082 8.85705 25.9479C8.42773 26.138 8.14254 26.2656 7.9776 26.32C7.64848 26.4216 7.30703 26.485 6.96172 26.5061C6.42758 26.5061 5.92966 26.3452 5.43637 26.0194L5.44947 26.008ZM12.4943 6.00835C11.796 6.37641 11.1293 6.53322 10.4672 6.48204C10.3631 5.77922 10.4672 5.06016 10.7439 4.27285C10.9795 3.60584 11.3275 2.98925 11.7713 2.45285C12.24 1.88818 12.8086 1.42534 13.4454 1.09029C14.1237 0.722224 14.7704 0.523162 15.3886 0.493912C15.4687 1.23004 15.3886 1.95397 15.1319 2.73641C14.8944 3.42808 14.5469 4.0721 14.1045 4.64091C13.6528 5.20635 13.0986 5.67099 12.4743 6.00754L12.4943 6.00835Z" fill="black"/>
</svg>
