<svg width="21" height="20" viewBox="0 0 21 20" fill="none" xmlns="http://www.w3.org/2000/svg">
<path d="M6.79134 7.70833C7.25157 7.70833 7.62467 7.33523 7.62467 6.875C7.62467 6.41477 7.25157 6.04167 6.79134 6.04167C6.33111 6.04167 5.95801 6.41477 5.95801 6.875C5.95801 7.33523 6.33111 7.70833 6.79134 7.70833ZM9.70801 6.25C9.36284 6.25 9.08301 6.52982 9.08301 6.875C9.08301 7.22017 9.36284 7.5 9.70801 7.5H14.2913C14.6365 7.5 14.9163 7.22017 14.9163 6.875C14.9163 6.52982 14.6365 6.25 14.2913 6.25H9.70801ZM9.70809 9.375C9.36284 9.375 9.08309 9.65483 9.08309 10C9.08309 10.3452 9.36284 10.625 9.70809 10.625H14.2913C14.6365 10.625 14.9163 10.3452 14.9163 10C14.9163 9.65483 14.6365 9.375 14.2913 9.375H9.70809ZM9.08309 13.125C9.08309 12.7798 9.36284 12.5 9.70809 12.5H14.2913C14.6365 12.5 14.9163 12.7798 14.9163 13.125C14.9163 13.4702 14.6365 13.75 14.2913 13.75H9.70809C9.36284 13.75 9.08309 13.4702 9.08309 13.125ZM7.62467 10C7.62467 10.4602 7.25157 10.8333 6.79134 10.8333C6.33111 10.8333 5.95801 10.4602 5.95801 10C5.95801 9.53975 6.33111 9.16667 6.79134 9.16667C7.25157 9.16667 7.62467 9.53975 7.62467 10ZM6.79134 13.9583C7.25157 13.9583 7.62467 13.5852 7.62467 13.125C7.62467 12.6648 7.25157 12.2917 6.79134 12.2917C6.33111 12.2917 5.95801 12.6648 5.95801 13.125C5.95801 13.5852 6.33111 13.9583 6.79134 13.9583ZM5.54134 2.5C4.04557 2.5 2.83301 3.71256 2.83301 5.20833V14.7917C2.83301 16.2874 4.04557 17.5 5.54134 17.5H15.1247C16.6204 17.5 17.833 16.2874 17.833 14.7917V5.20833C17.833 3.71256 16.6204 2.5 15.1247 2.5H5.54134ZM4.08301 5.20833C4.08301 4.40292 4.73592 3.75 5.54134 3.75H15.1247C15.9301 3.75 16.583 4.40292 16.583 5.20833V14.7917C16.583 15.5971 15.9301 16.25 15.1247 16.25H5.54134C4.73592 16.25 4.08301 15.5971 4.08301 14.7917V5.20833Z" fill="white"/>
</svg>
