<svg width="48" height="48" viewBox="0 0 48 48" fill="none" xmlns="http://www.w3.org/2000/svg">
<path d="M11.3103 4.45464C10.445 4.68074 9.8876 5.00042 9.45436 5.42488C8.84358 6.0233 8.44536 6.86344 8.22764 8.45C8.00352 10.0832 8 12.2477 8 15.3514V32.4884C8.77734 31.9562 9.65348 31.5512 10.598 31.3034C10.8259 31.2434 11.0621 31.1966 11.3103 31.1598V4.45464Z" fill="#249EF1"/>
<path d="M14.6211 31.027C14.6445 31.027 14.6681 31.027 14.6917 31.027H40.0004V15.3514C40.0004 12.2477 39.9968 10.0832 39.7728 8.44998C39.555 6.86344 39.1568 6.0233 38.546 5.42488C37.9352 4.82648 37.0778 4.43632 35.4584 4.22302C33.7914 4.00344 31.582 4 28.4142 4H19.5866C17.5832 4 15.9631 4.00138 14.6211 4.05794V31.027Z" fill="#249EF1"/>
<path d="M17.3798 34.2702H14.9473C12.7884 34.2702 12.0337 34.2842 11.4553 34.436C9.86781 34.8528 8.60229 36.0088 8.05957 37.5116C8.09313 38.2764 8.14571 38.9492 8.22817 39.55C8.44589 41.1366 8.84411 41.9768 9.45489 42.5752C10.0657 43.1736 10.9232 43.5636 12.5426 43.777C14.2096 43.9966 16.4189 44 19.5867 44H28.4143C31.5821 44 33.7915 43.9966 35.4585 43.777C37.0779 43.5636 37.9353 43.1736 38.5461 42.5752C39.1569 41.9768 39.5551 41.1366 39.7729 39.55C39.9557 38.2176 39.9917 36.5314 39.9989 34.2702H26.2075V40.2834C26.2075 40.8794 26.2075 41.1772 25.9981 41.2976C25.7887 41.418 25.5025 41.2848 24.9299 41.0184L22.1885 39.7426C21.9947 39.6524 21.8979 39.6074 21.7937 39.6074C21.6895 39.6074 21.5925 39.6524 21.3989 39.7426L18.6574 41.0184C18.0848 41.2848 17.7985 41.418 17.5892 41.2976C17.3798 41.1772 17.3798 40.8794 17.3798 40.2834V34.2702Z" fill="#249EF1"/>
</svg>
