<svg width="48" height="48" viewBox="0 0 48 48" fill="none" xmlns="http://www.w3.org/2000/svg">
<path d="M15.4997 5C15.4997 4.17158 14.8281 3.5 13.9997 3.5C13.1713 3.5 12.4997 4.17158 12.4997 5V8.15852C9.62102 8.38902 7.73122 8.95474 6.34282 10.3431C4.95442 11.7315 4.3887 13.6213 4.1582 16.5H43.8411C43.6107 13.6213 43.0449 11.7315 41.6565 10.3431C40.2681 8.95474 38.3783 8.38902 35.4997 8.15852V5C35.4997 4.17158 34.8281 3.5 33.9997 3.5C33.1713 3.5 32.4997 4.17158 32.4997 5V8.0258C31.1691 8 29.6777 8 27.9997 8H19.9997C18.3216 8 16.8302 8 15.4997 8.0258V5Z" fill="#249EF1"/>
<path fill-rule="evenodd" clip-rule="evenodd" d="M44 24V28C44 35.5424 44 39.3138 41.6568 41.6568C39.3138 44 35.5424 44 28 44H20C12.4575 44 8.6863 44 6.34314 41.6568C4 39.3138 4 35.5424 4 28V24C4 22.322 4 20.8306 4.0258 19.5H43.9742C44 20.8306 44 22.322 44 24ZM33 36C34.6568 36 36 34.6568 36 33C36 31.3432 34.6568 30 33 30C31.3432 30 30 31.3432 30 33C30 34.6568 31.3432 36 33 36Z" fill="#249EF1"/>
</svg>
