<svg width="20" height="21" viewBox="0 0 20 21" fill="none" xmlns="http://www.w3.org/2000/svg">
<path d="M1.85005 2.34973C1.62816 2.57162 1.60799 2.91884 1.78953 3.16351L1.85005 3.23361L5.21219 6.59575C3.61053 7.72031 2.41347 9.39992 1.91606 11.387C1.83224 11.7218 2.03574 12.0613 2.37058 12.1451C2.70543 12.2288 3.04483 12.0254 3.12865 11.6905C3.56988 9.92792 4.65959 8.44956 6.11213 7.49544L7.62015 9.00359C7.03056 9.60484 6.66699 10.4286 6.66699 11.3372C6.66699 13.1782 8.15938 14.6705 10.0003 14.6705C10.909 14.6705 11.7327 14.3069 12.334 13.7173L17.2667 18.6503C17.5108 18.8943 17.9065 18.8943 18.1506 18.6503C18.3725 18.4284 18.3927 18.0812 18.2111 17.8365L18.1506 17.7664L13.056 12.6713L13.057 12.67L12.0569 11.6718L9.66533 9.28067L9.66699 9.28L7.26597 6.88152L7.26699 6.88L6.32259 5.93791L2.73393 2.34973C2.48986 2.10565 2.09413 2.10565 1.85005 2.34973ZM8.50374 9.88792L11.4497 12.8338C11.0747 13.197 10.5636 13.4205 10.0003 13.4205C8.84974 13.4205 7.91699 12.4878 7.91699 11.3372C7.91699 10.7739 8.14052 10.2628 8.50374 9.88792ZM10.0003 5.08334C9.16674 5.08334 8.35791 5.20673 7.5929 5.4375L8.62374 6.46766C9.07024 6.37944 9.53066 6.33334 10.0003 6.33334C13.2696 6.33334 16.0919 8.56689 16.8729 11.6943C16.9566 12.0292 17.2958 12.2328 17.6307 12.1493C17.9657 12.0656 18.1693 11.7263 18.0857 11.3914C17.1665 7.7106 13.8466 5.08334 10.0003 5.08334ZM10.1626 8.00774L13.3303 11.175C13.2455 9.46092 11.873 8.0897 10.1626 8.00774Z" fill="black" fill-opacity="0.5"/>
</svg>
