<svg width="16" height="16" viewBox="0 0 16 16" fill="none" xmlns="http://www.w3.org/2000/svg">
<path d="M12.6663 2H3.33301C2.3902 2 1.91879 2 1.6259 2.2748C1.33301 2.5496 1.33301 2.99188 1.33301 3.87644V4.33632C1.33301 5.02821 1.33301 5.37416 1.50607 5.66095C1.67914 5.94773 1.99532 6.12572 2.62769 6.4817L4.5697 7.57493C4.99398 7.81373 5.20612 7.9332 5.35801 8.06507C5.67433 8.33967 5.86906 8.66233 5.9573 9.05813C5.99967 9.24813 5.99967 9.47053 5.99967 9.91527V11.6949C5.99967 12.3013 5.99967 12.6045 6.16762 12.8409C6.33557 13.0772 6.63386 13.1938 7.23047 13.4271C8.48287 13.9167 9.10907 14.1615 9.55441 13.8829C9.99967 13.6044 9.99967 12.9679 9.99967 11.6949V9.91527C9.99967 9.47053 9.99967 9.24813 10.0421 9.05813C10.1303 8.66233 10.325 8.33967 10.6413 8.06507C10.7932 7.9332 11.0053 7.81373 11.4297 7.57493L13.3717 6.4817C14.004 6.12572 14.3202 5.94773 14.4933 5.66095C14.6663 5.37416 14.6663 5.02821 14.6663 4.33632V3.87644C14.6663 2.99188 14.6663 2.5496 14.3735 2.2748C14.0805 2 13.6091 2 12.6663 2Z" stroke="white"/>
</svg>
