<svg width="25" height="24" viewBox="0 0 25 24" fill="none" xmlns="http://www.w3.org/2000/svg">
<path d="M2.61407 12.9579C2.23463 10.3208 2.04491 9.00229 2.58537 7.87495C3.12583 6.7476 4.27619 6.06234 6.57691 4.69181L7.96175 3.86687C10.051 2.62229 11.0957 2 12.25 2C13.4043 2 14.449 2.62229 16.5382 3.86687L17.9231 4.69181C20.2238 6.06234 21.3742 6.7476 21.9146 7.87495C22.4551 9.00229 22.2654 10.3208 21.8859 12.9579L21.6072 14.8952C21.1197 18.2827 20.876 19.9764 19.701 20.9882C18.5259 22 16.8026 22 13.3561 22H11.1439C7.69737 22 5.97409 22 4.79903 20.9882C3.62396 19.9764 3.38025 18.2827 2.89284 14.8952L2.61407 12.9579Z" stroke="white" stroke-width="1.5"/>
<path d="M12.25 15V18" stroke="white" stroke-width="1.5" stroke-linecap="round"/>
</svg>
