<svg width="20" height="20" viewBox="0 0 20 20" fill="none" xmlns="http://www.w3.org/2000/svg">
<path d="M3.33301 3.54167C3.33301 2.50614 4.17247 1.66667 5.20801 1.66667H8.85901C9.35626 1.66667 9.83317 1.86421 10.1848 2.21585L14.0338 6.06489C14.3854 6.41651 14.583 6.89343 14.583 7.39071V14.375C14.583 15.4105 13.7435 16.25 12.708 16.25H5.20801C4.17247 16.25 3.33301 15.4105 3.33301 14.375V3.54167ZM5.20801 2.91667C4.86283 2.91667 4.58301 3.1965 4.58301 3.54167V14.375C4.58301 14.7202 4.86283 15 5.20801 15H12.708C13.0532 15 13.333 14.7202 13.333 14.375V7.49795H10.6279C9.59242 7.49795 8.75292 6.65848 8.75292 5.62295V2.91667H5.20801ZM10.0029 3.80175V5.62295C10.0029 5.96812 10.2828 6.24795 10.6279 6.24795H12.4491L10.0029 3.80175Z" fill="white"/>
<path d="M5.52441 17.0833C5.78181 17.8116 6.47633 18.3333 7.29272 18.3333H12.7094C14.8955 18.3333 16.6677 16.5612 16.6677 14.375V9.47408C16.6677 8.97675 16.4702 8.49983 16.1186 8.14823L15.4177 7.4474V14.375C15.4177 15.8707 14.2052 17.0833 12.7094 17.0833H5.52441Z" fill="white"/>
</svg>
