<svg width="25" height="24" viewBox="0 0 25 24" fill="none" xmlns="http://www.w3.org/2000/svg">
<path fill-rule="evenodd" clip-rule="evenodd" d="M11.5 2C11.5 1.58579 11.8358 1.25 12.25 1.25C18.1871 1.25 23 6.06294 23 12C23 17.9371 18.1871 22.75 12.25 22.75C6.31294 22.75 1.5 17.9371 1.5 12C1.5 11.5858 1.83579 11.25 2.25 11.25C2.66421 11.25 3 11.5858 3 12C3 17.1086 7.14137 21.25 12.25 21.25C17.3586 21.25 21.5 17.1086 21.5 12C21.5 6.89137 17.3586 2.75 12.25 2.75C11.8358 2.75 11.5 2.41421 11.5 2ZM12.25 8.25C12.6642 8.25 13 8.58579 13 9V12.25H16.25C16.6642 12.25 17 12.5858 17 13C17 13.4142 16.6642 13.75 16.25 13.75H12.25C11.8358 13.75 11.5 13.4142 11.5 13V9C11.5 8.58579 11.8358 8.25 12.25 8.25Z" fill="black" fill-opacity="0.5"/>
<path fill-rule="evenodd" clip-rule="evenodd" d="M9.34914 2.39754C9.4983 2.78396 9.30597 3.21814 8.91955 3.36731C8.77811 3.42191 8.63836 3.47988 8.50037 3.54114C8.12178 3.70921 7.67863 3.53856 7.51057 3.15997C7.3425 2.78139 7.51315 2.33824 7.89174 2.17017C8.05224 2.09892 8.21483 2.03147 8.37936 1.96795C8.7658 1.81878 9.19998 2.01112 9.34914 2.39754ZM5.89727 4.24026C6.18294 4.54021 6.17135 5.01495 5.8714 5.30061C5.76173 5.40506 5.65462 5.51216 5.55018 5.62183C5.26452 5.92178 4.78978 5.93337 4.48983 5.6477C4.18988 5.36204 4.1783 4.88731 4.46396 4.58736C4.58523 4.46003 4.70959 4.33566 4.83693 4.21439C5.13688 3.92873 5.61161 3.94031 5.89727 4.24026ZM3.40954 7.261C3.78813 7.42907 3.95878 7.87222 3.79071 8.2508C3.72945 8.38879 3.67148 8.52855 3.61688 8.66999C3.46771 9.05641 3.03353 9.24874 2.64711 9.09958C2.26069 8.95041 2.06835 8.51623 2.21752 8.12981C2.28104 7.96526 2.34849 7.80267 2.41974 7.64217C2.58781 7.26358 3.03096 7.09293 3.40954 7.261Z" fill="black" fill-opacity="0.5"/>
</svg>
