<svg width="25" height="24" viewBox="0 0 25 24" fill="none" xmlns="http://www.w3.org/2000/svg">
<path d="M12.9105 10.87C12.8105 10.86 12.6905 10.86 12.5805 10.87C10.2005 10.79 8.31055 8.84 8.31055 6.44C8.31055 3.99 10.2905 2 12.7505 2C15.2005 2 17.1905 3.99 17.1905 6.44C17.1805 8.84 15.2905 10.79 12.9105 10.87Z" stroke="black" stroke-opacity="0.5" stroke-width="1.5" stroke-linecap="round" stroke-linejoin="round"/>
<path d="M7.9107 14.56C5.4907 16.18 5.4907 18.82 7.9107 20.43C10.6607 22.27 15.1707 22.27 17.9207 20.43C20.3407 18.81 20.3407 16.17 17.9207 14.56C15.1807 12.73 10.6707 12.73 7.9107 14.56Z" stroke="black" stroke-opacity="0.5" stroke-width="1.5" stroke-linecap="round" stroke-linejoin="round"/>
</svg>
