<svg width="20" height="20" viewBox="0 0 20 20" fill="none" xmlns="http://www.w3.org/2000/svg">
<path d="M10.0097 1.875C10.6213 1.88205 11.2306 1.95272 11.8276 2.08587C12.0882 2.14399 12.2831 2.36126 12.3127 2.62663L12.4545 3.89901C12.5188 4.48322 13.012 4.9257 13.6 4.92632C13.7581 4.92657 13.9144 4.89365 14.0605 4.82902L15.2277 4.3163C15.4704 4.20966 15.7541 4.2678 15.9353 4.46135C16.7788 5.3622 17.4069 6.44263 17.7726 7.62132C17.8514 7.87548 17.7607 8.15169 17.5465 8.30958L16.5119 9.07217C16.2168 9.289 16.0425 9.63333 16.0425 9.99958C16.0425 10.3658 16.2168 10.7101 16.5126 10.9274L17.548 11.6903C17.7623 11.8481 17.8531 12.1243 17.7743 12.3786C17.4088 13.5571 16.7809 14.6374 15.9379 15.5384C15.7569 15.7319 15.4735 15.7902 15.2308 15.6838L14.0588 15.1704C13.7235 15.0237 13.3385 15.0452 13.0216 15.2283C12.7048 15.4114 12.4939 15.7343 12.4537 16.0981L12.3128 17.3703C12.2837 17.6327 12.093 17.8485 11.8362 17.9096C10.6292 18.1968 9.3716 18.1968 8.16454 17.9096C7.90777 17.8485 7.71705 17.6327 7.688 17.3703L7.54731 16.1C7.50599 15.7369 7.2948 15.415 6.9782 15.2325C6.6616 15.05 6.27718 15.0286 5.94301 15.1745L4.77082 15.688C4.52803 15.7944 4.24454 15.7361 4.0635 15.5424C3.22003 14.6404 2.59217 13.5588 2.22718 12.379C2.14856 12.1249 2.2394 11.8488 2.45355 11.6911L3.48966 10.9277C3.78478 10.7109 3.95907 10.3666 3.95907 10.0004C3.95907 9.63417 3.78478 9.28983 3.48927 9.07275L2.45381 8.31071C2.23935 8.15287 2.14843 7.87648 2.22732 7.62215C2.59295 6.44346 3.22113 5.36303 4.06462 4.46218C4.24584 4.26863 4.52946 4.21049 4.77221 4.31713L5.9392 4.82977C6.27498 4.97713 6.66101 4.95487 6.97932 4.76891C7.29625 4.58508 7.50725 4.26185 7.54799 3.89803L7.68971 2.62663C7.71931 2.36112 7.9144 2.14378 8.17518 2.08578C8.77293 1.95285 9.38285 1.88221 10.0097 1.875ZM10.0098 3.12492C9.63143 3.12937 9.25418 3.16202 8.88101 3.22252L8.79026 4.03682C8.70543 4.79473 8.2662 5.46752 7.6082 5.84919C6.94615 6.23597 6.13898 6.28252 5.43666 5.97431L4.68809 5.64547C4.21148 6.22394 3.83213 6.87612 3.56495 7.5764L4.22978 8.06566C4.84545 8.518 5.20907 9.23642 5.20907 10.0004C5.20907 10.7643 4.84545 11.4827 4.23043 11.9346L3.56455 12.4252C3.8315 13.1267 4.21091 13.7801 4.68785 14.3597L5.44212 14.0293C6.14054 13.7243 6.94221 13.7689 7.60245 14.1495C8.26269 14.5301 8.7031 15.2014 8.78951 15.9605L8.88035 16.7804C9.62168 16.9065 10.3791 16.9065 11.1204 16.7804L11.2113 15.9606C11.2953 15.2017 11.7352 14.5281 12.3962 14.1461C13.0572 13.764 13.8605 13.7192 14.5602 14.0254L15.3138 14.3556C15.7903 13.7769 16.1696 13.1246 16.4368 12.4242L15.7718 11.9342C15.1561 11.4819 14.7925 10.7635 14.7925 9.99958C14.7925 9.23558 15.1561 8.51717 15.771 8.06539L16.4351 7.57591C16.1679 6.87551 15.7885 6.2232 15.3118 5.64463L14.5648 5.97281C14.2603 6.10751 13.931 6.17683 13.5984 6.17632C12.3737 6.17503 11.3458 5.25296 11.2121 4.03653L11.1213 3.22225C10.7501 3.16183 10.3767 3.12927 10.0098 3.12492ZM9.99926 6.87496C11.7252 6.87496 13.1243 8.27407 13.1243 10C13.1243 11.7258 11.7252 13.125 9.99926 13.125C8.27337 13.125 6.87426 11.7258 6.87426 10C6.87426 8.27407 8.27337 6.87496 9.99926 6.87496ZM9.99926 8.12496C8.96376 8.12496 8.12426 8.96442 8.12426 10C8.12426 11.0355 8.96376 11.875 9.99926 11.875C11.0348 11.875 11.8743 11.0355 11.8743 10C11.8743 8.96442 11.0348 8.12496 9.99926 8.12496Z" fill="#249EF1"/>
</svg>
