<svg width="25" height="24" viewBox="0 0 25 24" fill="none" xmlns="http://www.w3.org/2000/svg">
<path d="M10.8005 2.53028L4.78051 6.46028C2.85051 7.72028 2.85051 10.5402 4.78051 11.8002L10.8005 15.7302C11.8805 16.4402 13.6605 16.4402 14.7405 15.7302L20.7305 11.8002C22.6505 10.5402 22.6505 7.73028 20.7305 6.47028L14.7405 2.54028C13.6605 1.82028 11.8805 1.82028 10.8005 2.53028Z" stroke="white" stroke-width="1.5" stroke-linecap="round" stroke-linejoin="round"/>
<path d="M6.38012 13.0801L6.37012 17.7701C6.37012 19.0401 7.35012 20.4001 8.55012 20.8001L11.7401 21.8601C12.2901 22.0401 13.2001 22.0401 13.7601 21.8601L16.9501 20.8001C18.1501 20.4001 19.1301 19.0401 19.1301 17.7701V13.1301" stroke="white" stroke-width="1.5" stroke-linecap="round" stroke-linejoin="round"/>
<path d="M22.1504 15V9" stroke="white" stroke-width="1.5" stroke-linecap="round" stroke-linejoin="round"/>
</svg>
