<svg width="21" height="20" viewBox="0 0 21 20" fill="none" xmlns="http://www.w3.org/2000/svg">
<path d="M5.04232 3.33333C3.54654 3.33333 2.33398 4.54589 2.33398 6.04166V13.9583C2.33398 15.4541 3.54654 16.6667 5.04232 16.6667H16.2923C17.7881 16.6667 19.0007 15.4541 19.0007 13.9583V6.04166C19.0007 4.54589 17.7881 3.33333 16.2923 3.33333H5.04232ZM3.58398 6.04166C3.58398 5.23624 4.2369 4.58333 5.04232 4.58333H16.2923C17.0977 4.58333 17.7507 5.23624 17.7507 6.04166V13.9583C17.7507 14.7637 17.0977 15.4167 16.2923 15.4167H5.04232C4.2369 15.4167 3.58398 14.7637 3.58398 13.9583V6.04166ZM15.8757 5.83333C15.5305 5.83333 15.2507 6.11315 15.2507 6.45833V6.87499C15.2507 7.22017 15.5305 7.49999 15.8757 7.49999C16.2208 7.49999 16.5007 7.22017 16.5007 6.87499V6.45833C16.5007 6.11315 16.2208 5.83333 15.8757 5.83333ZM15.2507 13.125C15.2507 12.7798 15.5305 12.5 15.8757 12.5C16.2208 12.5 16.5007 12.7798 16.5007 13.125V13.5417C16.5007 13.8868 16.2208 14.1667 15.8757 14.1667C15.5305 14.1667 15.2507 13.8868 15.2507 13.5417V13.125ZM15.8757 9.16666C15.5305 9.16666 15.2507 9.44649 15.2507 9.79166V10.2083C15.2507 10.5535 15.5305 10.8333 15.8757 10.8333C16.2208 10.8333 16.5007 10.5535 16.5007 10.2083V9.79166C16.5007 9.44649 16.2208 9.16666 15.8757 9.16666ZM4.83398 6.45833C4.83398 6.11315 5.11381 5.83333 5.45898 5.83333C5.80416 5.83333 6.08398 6.11315 6.08398 6.45833V6.87499C6.08398 7.22017 5.80416 7.49999 5.45898 7.49999C5.11381 7.49999 4.83398 7.22017 4.83398 6.87499V6.45833ZM5.45898 12.5C5.11381 12.5 4.83398 12.7798 4.83398 13.125V13.5417C4.83398 13.8868 5.11381 14.1667 5.45898 14.1667C5.80416 14.1667 6.08398 13.8868 6.08398 13.5417V13.125C6.08398 12.7798 5.80416 12.5 5.45898 12.5ZM4.83398 9.79166C4.83398 9.44649 5.11381 9.16666 5.45898 9.16666C5.80416 9.16666 6.08398 9.44649 6.08398 9.79166V10.2083C6.08398 10.5535 5.80416 10.8333 5.45898 10.8333C5.11381 10.8333 4.83398 10.5535 4.83398 10.2083V9.79166ZM9.00065 8.12602C9.00065 7.64335 9.48073 7.3428 9.86273 7.58634L12.9247 9.53883C13.2482 9.74508 13.2482 10.255 12.9247 10.4612L9.86265 12.4137C9.48073 12.6572 9.00065 12.3567 9.00065 11.874V8.12602Z" fill="white"/>
</svg>
