<svg width="48" height="48" viewBox="0 0 48 48" fill="none" xmlns="http://www.w3.org/2000/svg">
<path d="M17.0201 4.00002H30.9803C31.4453 3.9999 31.8017 3.99982 32.1133 4.0303C34.3289 4.24704 36.1425 5.57916 36.9115 7.37356H11.0889C11.8579 5.57916 13.6714 4.24704 15.887 4.0303C16.1986 3.99982 16.5551 3.9999 17.0201 4.00002Z" fill="#249EF1"/>
<path d="M12.6214 9.44624C9.84013 9.44624 7.55961 11.1257 6.79855 13.3538C6.78269 13.4003 6.76747 13.447 6.75293 13.4939C7.54923 13.2527 8.37797 13.0952 9.21689 12.9876C11.3776 12.7106 14.1083 12.7108 17.2804 12.7109H31.0645C34.2365 12.7108 36.9674 12.7106 39.1282 12.9876C39.9669 13.0952 40.7957 13.2527 41.5919 13.4939C41.5775 13.447 41.5624 13.4003 41.5464 13.3538C40.7854 11.1257 38.5048 9.44624 35.7236 9.44624H12.6214Z" fill="#249EF1"/>
<path fill-rule="evenodd" clip-rule="evenodd" d="M30.6552 15.0841H17.3448C10.5952 15.0841 7.22034 15.0841 5.32464 17.0577C3.42894 19.0314 3.87496 22.0806 4.76702 28.1792L5.61296 33.9622C6.31252 38.7448 6.6623 41.136 8.45668 42.568C10.2511 44 12.8976 44 18.1907 44H29.8092C35.1024 44 37.749 44 39.5434 42.568C41.3378 41.136 41.6874 38.7448 42.387 33.9622L43.233 28.1792C44.125 22.0808 44.571 19.0314 42.6754 17.0577C40.7796 15.0841 37.4048 15.0841 30.6552 15.0841ZM29.1624 31.5884C30.2792 30.8962 30.2792 29.1038 29.1624 28.4116L22.4192 24.2312C21.3338 23.5584 20 24.4342 20 25.8198V34.1802C20 35.5658 21.3338 36.4416 22.4192 35.7688L29.1624 31.5884Z" fill="#249EF1"/>
</svg>
